<?xml version="1.0" encoding="utf-8"?>
<!-- Generator: Adobe Illustrator 21.0.2, SVG Export Plug-In . SVG Version: 6.00 Build 0)  -->
<!DOCTYPE svg PUBLIC "-//W3C//DTD SVG 1.1//EN" "http://www.w3.org/Graphics/SVG/1.1/DTD/svg11.dtd">
<svg version="1.1" id="Layer_2" xmlns="http://www.w3.org/2000/svg" xmlns:xlink="http://www.w3.org/1999/xlink" x="0px" y="0px"
	 viewBox="0 0 18 18" style="enable-background:new 0 0 18 18;" xml:space="preserve">
<style type="text/css">
	.orange_icon{fill:#FF7200;}
</style>
<path class="orange_icon" d="M13.3,5l-1.8,4c-0.4,0.8-1.2,1.3-2.1,1.3c-1.7,0-2.8-1.7-2.1-3.2l1-2.1H0v2h1l2,9h12l2-9h1V5H13.3z"/>
<path class="orange_icon" d="M9.4,9c0.4,0,0.7-0.2,0.8-0.5l3.2-7.2C13.7,0.7,13.2,0,12.6,0c-0.4,0-0.7,0.2-0.8,0.5L8.6,7.7
	C8.3,8.3,8.7,9,9.4,9z"/>
</svg>
