<?xml version="1.0" encoding="utf-8"?>
<!-- Generator: Adobe Illustrator 21.0.2, SVG Export Plug-In . SVG Version: 6.00 Build 0)  -->
<!DOCTYPE svg PUBLIC "-//W3C//DTD SVG 1.1//EN" "http://www.w3.org/Graphics/SVG/1.1/DTD/svg11.dtd">
<svg version="1.1" id="Layer_2" xmlns="http://www.w3.org/2000/svg" xmlns:xlink="http://www.w3.org/1999/xlink" x="0px" y="0px"
	 viewBox="0 0 18 18" style="enable-background:new 0 0 18 18;" xml:space="preserve">
<style type="text/css">
	.white_icon{fill:#FFFFFF;}
</style>
<path id="Search" class="white_icon" d="M11.5,2C9,2,7,4,7,6.5c0,0.9,0.2,1.6,0.7,2.3l-4.4,4.4c-0.4,0.4-0.4,1.1,0,1.5
	s1.1,0.4,1.5,0l4.4-4.4c0.7,0.4,1.5,0.7,2.3,0.7C14,11,16,9,16,6.5S14,2,11.5,2z M11.5,9.5c-1.6,0-3-1.3-3-3c0-1.6,1.3-3,3-3
	s3,1.3,3,3C14.5,8.1,13.2,9.5,11.5,9.5z"/>
</svg>
